<svg width="389" height="388" viewBox="0 0 389 388" fill="none" xmlns="http://www.w3.org/2000/svg">
<path d="M389 194C389 301.139 359 388 194.5 388C27.5 388 0 301.143 0 194C0 86.8567 29 7.6294e-06 194.5 0C341 -6.75352e-06 389 68 389 194Z" fill="url(#paint0_linear_116_92)"/>
<g filter="url(#filter0_d_116_92)">
<path d="M195.906 260.395V260.382C195.474 260.644 194.981 260.789 194.476 260.802C193.971 260.814 193.472 260.694 193.027 260.454L148.316 235.018C147.932 234.835 147.512 234.741 147.088 234.741C146.509 234.733 145.944 234.922 145.485 235.275C145.485 235.275 141.79 238.341 141.144 238.88C140.716 239.237 140.195 239.464 139.643 239.534C139.091 239.605 138.53 239.517 138.026 239.28C137.522 239.042 137.096 238.666 136.798 238.195C136.5 237.724 136.343 237.177 136.344 236.62C136.344 235 136.344 161.964 136.344 161.964H136.353C136.353 161.499 136.465 161.04 136.679 160.628C136.892 160.215 137.202 159.86 137.581 159.592C137.72 159.495 193.094 127.611 193.094 127.611V127.621C193.525 127.358 194.018 127.214 194.523 127.201C195.028 127.189 195.527 127.31 195.971 127.551L240.686 152.987C241.07 153.169 241.49 153.263 241.916 153.263C242.494 153.271 243.058 153.083 243.516 152.73L247.861 149.125C248.289 148.769 248.809 148.543 249.361 148.473C249.913 148.403 250.473 148.491 250.976 148.728C251.479 148.966 251.905 149.341 252.203 149.812C252.501 150.282 252.658 150.828 252.658 151.385C252.658 153.005 252.658 226.041 252.658 226.041H252.647C252.647 226.506 252.536 226.963 252.322 227.375C252.109 227.788 251.799 228.142 251.42 228.409C251.279 228.51 195.906 260.395 195.906 260.395ZM269.756 238.966C270.137 238.7 270.449 238.345 270.664 237.932C270.879 237.519 270.991 237.06 270.99 236.594C270.99 236.594 271 137.539 271 135.919C271.001 135.362 270.843 134.816 270.546 134.345C270.248 133.873 269.822 133.497 269.319 133.26C268.815 133.022 268.254 132.934 267.702 133.004C267.15 133.075 266.63 133.301 266.201 133.657C266.201 133.657 259.49 139.272 258.638 139.977C258.033 140.473 257.293 140.773 256.514 140.835C255.736 140.898 254.957 140.721 254.281 140.328L195.971 106.35L195.966 106.349L195.96 106.35C195.541 106.121 195.071 106.001 194.594 106C194.064 105.999 193.545 106.144 193.092 106.417V106.407L119.249 149.037C118.868 149.304 118.556 149.659 118.341 150.073C118.126 150.487 118.014 150.947 118.015 151.413C118.015 151.413 118 250.466 118 252.087C118 252.644 118.158 253.19 118.456 253.661C118.754 254.131 119.179 254.507 119.683 254.744C120.186 254.981 120.747 255.069 121.299 254.999C121.85 254.928 122.371 254.702 122.799 254.346C122.799 254.346 129.512 248.733 130.362 248.029C130.966 247.533 131.706 247.233 132.484 247.17C133.263 247.107 134.042 247.283 134.717 247.675C135.856 248.342 193.029 281.655 193.029 281.655C193.032 281.656 193.036 281.656 193.04 281.655C193.46 281.882 193.93 282.001 194.408 282C194.937 282 195.455 281.856 195.908 281.583V281.593L269.756 238.966Z" fill="url(#paint1_linear_116_92)"/>
</g>
<defs>
<filter id="filter0_d_116_92" x="76" y="64" width="237" height="260" filterUnits="userSpaceOnUse" color-interpolation-filters="sRGB">
<feFlood flood-opacity="0" result="BackgroundImageFix"/>
<feColorMatrix in="SourceAlpha" type="matrix" values="0 0 0 0 0 0 0 0 0 0 0 0 0 0 0 0 0 0 127 0" result="hardAlpha"/>
<feOffset/>
<feGaussianBlur stdDeviation="21"/>
<feComposite in2="hardAlpha" operator="out"/>
<feColorMatrix type="matrix" values="0 0 0 0 0 0 0 0 0 0 0 0 0 0 0 0 0 0 1 0"/>
<feBlend mode="normal" in2="BackgroundImageFix" result="effect1_dropShadow_116_92"/>
<feBlend mode="normal" in="SourceGraphic" in2="effect1_dropShadow_116_92" result="shape"/>
</filter>
<linearGradient id="paint0_linear_116_92" x1="194.5" y1="0" x2="194.5" y2="388" gradientUnits="userSpaceOnUse">
<stop stop-color="#242627"/>
<stop offset="0.619792" stop-color="#2C2D31"/>
<stop offset="1" stop-color="#242627"/>
</linearGradient>
<linearGradient id="paint1_linear_116_92" x1="131.5" y1="146" x2="255" y2="233.5" gradientUnits="userSpaceOnUse">
<stop stop-color="#C3D62E"/>
<stop offset="0.541667" stop-color="#29BA74"/>
<stop offset="1" stop-color="#008CAA"/>
</linearGradient>
</defs>
</svg>
